<svg width="175" height="175" viewBox="0 0 175 175" fill="none" xmlns="http://www.w3.org/2000/svg">
<circle cx="87.5" cy="87.5" r="87.5" fill="#FF5A5A"/>
<path d="M81.8011 85.3636C81.7415 84.8598 81.4995 84.4688 81.0753 84.1903C80.651 83.9119 80.1307 83.7727 79.5142 83.7727C79.0634 83.7727 78.669 83.8456 78.331 83.9915C77.9962 84.1373 77.7344 84.3378 77.5455 84.593C77.3598 84.8482 77.267 85.1383 77.267 85.4631C77.267 85.7348 77.3317 85.9685 77.4609 86.1641C77.5935 86.3563 77.7625 86.517 77.968 86.6463C78.1735 86.7723 78.389 86.8767 78.6143 86.9595C78.8397 87.0391 79.0469 87.1037 79.2358 87.1534L80.2699 87.4318C80.535 87.5014 80.83 87.5975 81.1548 87.7202C81.483 87.8428 81.7962 88.0102 82.0945 88.2223C82.3961 88.4311 82.6446 88.6996 82.8402 89.0277C83.0357 89.3558 83.1335 89.7585 83.1335 90.2358C83.1335 90.786 82.9893 91.2831 82.701 91.7273C82.416 92.1714 81.9983 92.5244 81.4482 92.7862C80.9013 93.0481 80.2367 93.179 79.4545 93.179C78.7254 93.179 78.094 93.0613 77.5604 92.826C77.0301 92.5907 76.6125 92.2625 76.3075 91.8416C76.0059 91.4207 75.8352 90.9318 75.7955 90.375H77.0682C77.1013 90.7595 77.2306 91.0777 77.456 91.3295C77.6847 91.5781 77.973 91.7637 78.321 91.8864C78.6723 92.0057 79.0502 92.0653 79.4545 92.0653C79.9252 92.0653 80.3478 91.9891 80.7223 91.8366C81.0968 91.6809 81.3935 91.4654 81.6122 91.1903C81.831 90.9119 81.9403 90.5871 81.9403 90.2159C81.9403 89.8778 81.8459 89.6027 81.657 89.3906C81.468 89.1785 81.2195 89.0062 80.9112 88.8736C80.603 88.741 80.2699 88.625 79.9119 88.5256L78.6591 88.1676C77.8636 87.9389 77.2339 87.6125 76.7699 87.1882C76.3059 86.764 76.0739 86.2088 76.0739 85.5227C76.0739 84.9527 76.228 84.4555 76.5362 84.0312C76.8478 83.6037 77.2654 83.2723 77.7891 83.0369C78.3161 82.7983 78.9044 82.679 79.554 82.679C80.2102 82.679 80.7936 82.7966 81.304 83.032C81.8144 83.264 82.2188 83.5821 82.517 83.9865C82.8187 84.3909 82.9777 84.8499 82.9943 85.3636H81.8011ZM87.2488 93.179C86.7649 93.179 86.3257 93.0878 85.9313 92.9055C85.5369 92.7199 85.2237 92.4531 84.9917 92.1051C84.7596 91.7538 84.6436 91.3295 84.6436 90.8324C84.6436 90.3949 84.7298 90.0402 84.9022 89.7685C85.0745 89.4934 85.3049 89.2779 85.5932 89.1222C85.8816 88.9664 86.1998 88.8504 86.5478 88.7741C86.8991 88.6946 87.2521 88.6316 87.6067 88.5852C88.0707 88.5256 88.4469 88.4808 88.7353 88.451C89.0269 88.4179 89.2391 88.3632 89.3716 88.2869C89.5075 88.2107 89.5755 88.0781 89.5755 87.8892V87.8494C89.5755 87.3589 89.4412 86.9777 89.1728 86.706C88.9076 86.4342 88.5049 86.2983 87.9647 86.2983C87.4045 86.2983 86.9654 86.4209 86.6472 86.6662C86.329 86.9115 86.1053 87.1733 85.976 87.4517L84.8624 87.054C85.0613 86.59 85.3264 86.2287 85.6578 85.9702C85.9926 85.7083 86.3572 85.526 86.7516 85.4233C87.1493 85.3172 87.5404 85.2642 87.9249 85.2642C88.1702 85.2642 88.4519 85.294 88.7701 85.3537C89.0916 85.41 89.4015 85.5277 89.6998 85.7067C90.0014 85.8857 90.2516 86.1558 90.4505 86.517C90.6493 86.8783 90.7488 87.3622 90.7488 87.9688V93H89.5755V91.9659H89.5158C89.4363 92.1316 89.3037 92.3089 89.1181 92.4979C88.9325 92.6868 88.6855 92.8475 88.3773 92.9801C88.0691 93.1127 87.6929 93.179 87.2488 93.179ZM87.4277 92.125C87.8917 92.125 88.2828 92.0339 88.601 91.8516C88.9225 91.6693 89.1645 91.4339 89.3269 91.1456C89.4926 90.8572 89.5755 90.554 89.5755 90.2358V89.1619C89.5257 89.2216 89.4164 89.2763 89.2473 89.326C89.0816 89.3724 88.8894 89.4138 88.6706 89.4503C88.4552 89.4834 88.2447 89.5133 88.0392 89.5398C87.8371 89.563 87.673 89.5829 87.5471 89.5994C87.2421 89.6392 86.9571 89.7038 86.6919 89.7933C86.4301 89.8795 86.218 90.0104 86.0556 90.1861C85.8965 90.3584 85.8169 90.5937 85.8169 90.892C85.8169 91.2997 85.9677 91.608 86.2694 91.8168C86.5743 92.0223 86.9604 92.125 87.4277 92.125ZM93.3725 95.8636C93.1737 95.8636 92.9963 95.8471 92.8406 95.8139C92.6848 95.7841 92.5771 95.7543 92.5174 95.7244L92.8157 94.6903C93.1007 94.7633 93.3526 94.7898 93.5714 94.7699C93.7901 94.75 93.984 94.6522 94.1531 94.4766C94.3254 94.3042 94.4828 94.0241 94.6254 93.6364L94.8441 93.0398L92.0202 85.3636H93.293L95.4009 91.4489H95.4805L97.5884 85.3636H98.8612L95.6197 94.1136C95.4738 94.508 95.2932 94.8345 95.0778 95.093C94.8623 95.3549 94.6121 95.5488 94.3271 95.6747C94.0453 95.8007 93.7272 95.8636 93.3725 95.8636Z" fill="white"/>
</svg>
