<svg width="175" height="175" viewBox="0 0 175 175" fill="none" xmlns="http://www.w3.org/2000/svg">
<circle cx="87.5" cy="87.5" r="87.5" fill="#FF5A5A"/>
<path d="M47.233 93V82.8182H50.6733C51.4688 82.8182 52.1217 82.9541 52.6321 83.2259C53.1425 83.4943 53.5204 83.8639 53.7656 84.3345C54.0109 84.8052 54.1335 85.3404 54.1335 85.9403C54.1335 86.5402 54.0109 87.0722 53.7656 87.5362C53.5204 88.0002 53.1442 88.3648 52.6371 88.63C52.13 88.8918 51.482 89.0227 50.6932 89.0227H47.9091V87.9091H50.6534C51.197 87.9091 51.6345 87.8295 51.9659 87.6705C52.3007 87.5114 52.5426 87.286 52.6918 86.9943C52.8442 86.6993 52.9205 86.348 52.9205 85.9403C52.9205 85.5327 52.8442 85.1764 52.6918 84.8714C52.5393 84.5665 52.2957 84.3312 51.9609 84.1655C51.6262 83.9964 51.1837 83.9119 50.6335 83.9119H48.4659V93H47.233ZM52.0256 88.4261L54.5312 93H53.0994L50.6335 88.4261H52.0256ZM58.2761 93.179C57.7922 93.179 57.353 93.0878 56.9586 92.9055C56.5642 92.7199 56.251 92.4531 56.019 92.1051C55.787 91.7538 55.671 91.3295 55.671 90.8324C55.671 90.3949 55.7572 90.0402 55.9295 89.7685C56.1019 89.4934 56.3322 89.2779 56.6206 89.1222C56.9089 88.9664 57.2271 88.8504 57.5751 88.7741C57.9264 88.6946 58.2794 88.6316 58.6341 88.5852C59.0981 88.5256 59.4743 88.4808 59.7626 88.451C60.0543 88.4179 60.2664 88.3632 60.399 88.2869C60.5349 88.2107 60.6028 88.0781 60.6028 87.8892V87.8494C60.6028 87.3589 60.4686 86.9777 60.2001 86.706C59.935 86.4342 59.5323 86.2983 58.992 86.2983C58.4319 86.2983 57.9927 86.4209 57.6745 86.6662C57.3564 86.9115 57.1326 87.1733 57.0034 87.4517L55.8897 87.054C56.0886 86.59 56.3538 86.2287 56.6852 85.9702C57.0199 85.7083 57.3845 85.526 57.7789 85.4233C58.1767 85.3172 58.5678 85.2642 58.9522 85.2642C59.1975 85.2642 59.4792 85.294 59.7974 85.3537C60.1189 85.41 60.4288 85.5277 60.7271 85.7067C61.0287 85.8857 61.2789 86.1558 61.4778 86.517C61.6767 86.8783 61.7761 87.3622 61.7761 87.9688V93H60.6028V91.9659H60.5431C60.4636 92.1316 60.331 92.3089 60.1454 92.4979C59.9598 92.6868 59.7129 92.8475 59.4047 92.9801C59.0964 93.1127 58.7202 93.179 58.2761 93.179ZM58.4551 92.125C58.9191 92.125 59.3102 92.0339 59.6284 91.8516C59.9499 91.6693 60.1918 91.4339 60.3542 91.1456C60.5199 90.8572 60.6028 90.554 60.6028 90.2358V89.1619C60.5531 89.2216 60.4437 89.2763 60.2747 89.326C60.109 89.3724 59.9167 89.4138 59.698 89.4503C59.4825 89.4834 59.2721 89.5133 59.0666 89.5398C58.8644 89.563 58.7003 89.5829 58.5744 89.5994C58.2695 89.6392 57.9844 89.7038 57.7193 89.7933C57.4574 89.8795 57.2453 90.0104 57.0829 90.1861C56.9238 90.3584 56.8443 90.5937 56.8443 90.892C56.8443 91.2997 56.9951 91.608 57.2967 91.8168C57.6016 92.0223 57.9877 92.125 58.4551 92.125ZM63.9176 93V85.3636H65.0909V93H63.9176ZM64.5142 84.0909C64.2855 84.0909 64.0883 84.013 63.9226 83.8572C63.7602 83.7015 63.679 83.5142 63.679 83.2955C63.679 83.0767 63.7602 82.8894 63.9226 82.7337C64.0883 82.5779 64.2855 82.5 64.5142 82.5C64.7429 82.5 64.9384 82.5779 65.1009 82.7337C65.2666 82.8894 65.3494 83.0767 65.3494 83.2955C65.3494 83.5142 65.2666 83.7015 65.1009 83.8572C64.9384 84.013 64.7429 84.0909 64.5142 84.0909ZM68.4132 88.4062V93H67.2399V85.3636H68.3734V86.5568H68.4728C68.6518 86.169 68.9236 85.8575 69.2882 85.6222C69.6528 85.3835 70.1234 85.2642 70.7001 85.2642C71.2172 85.2642 71.6696 85.3703 72.0574 85.5824C72.4451 85.7912 72.7467 86.1094 72.9622 86.5369C73.1776 86.9612 73.2853 87.4981 73.2853 88.1477V93H72.112V88.2273C72.112 87.6274 71.9563 87.16 71.6447 86.8253C71.3332 86.4872 70.9056 86.3182 70.362 86.3182C69.9875 86.3182 69.6528 86.3994 69.3578 86.5618C69.0661 86.7242 68.8358 86.9612 68.6667 87.2727C68.4977 87.5843 68.4132 87.9621 68.4132 88.4062ZM85.0941 85.3636C85.0344 84.8598 84.7925 84.4688 84.3683 84.1903C83.944 83.9119 83.4237 83.7727 82.8072 83.7727C82.3564 83.7727 81.962 83.8456 81.6239 83.9915C81.2892 84.1373 81.0273 84.3378 80.8384 84.593C80.6528 84.8482 80.56 85.1383 80.56 85.4631C80.56 85.7348 80.6246 85.9685 80.7539 86.1641C80.8865 86.3563 81.0555 86.517 81.261 86.6463C81.4665 86.7723 81.6819 86.8767 81.9073 86.9595C82.1327 87.0391 82.3398 87.1037 82.5288 87.1534L83.5629 87.4318C83.828 87.5014 84.123 87.5975 84.4478 87.7202C84.7759 87.8428 85.0891 88.0102 85.3874 88.2223C85.689 88.4311 85.9376 88.6996 86.1332 89.0277C86.3287 89.3558 86.4265 89.7585 86.4265 90.2358C86.4265 90.786 86.2823 91.2831 85.994 91.7273C85.7089 92.1714 85.2913 92.5244 84.7411 92.7862C84.1942 93.0481 83.5297 93.179 82.7475 93.179C82.0183 93.179 81.387 93.0613 80.8533 92.826C80.323 92.5907 79.9054 92.2625 79.6005 91.8416C79.2989 91.4207 79.1282 90.9318 79.0884 90.375H80.3612C80.3943 90.7595 80.5236 91.0777 80.7489 91.3295C80.9776 91.5781 81.266 91.7637 81.614 91.8864C81.9653 92.0057 82.3432 92.0653 82.7475 92.0653C83.2182 92.0653 83.6407 91.9891 84.0153 91.8366C84.3898 91.6809 84.6864 91.4654 84.9052 91.1903C85.1239 90.9119 85.2333 90.5871 85.2333 90.2159C85.2333 89.8778 85.1388 89.6027 84.9499 89.3906C84.761 89.1785 84.5124 89.0062 84.2042 88.8736C83.896 88.741 83.5629 88.625 83.2049 88.5256L81.9521 88.1676C81.1566 87.9389 80.5269 87.6125 80.0629 87.1882C79.5988 86.764 79.3668 86.2088 79.3668 85.5227C79.3668 84.9527 79.521 84.4555 79.8292 84.0312C80.1407 83.6037 80.5584 83.2723 81.082 83.0369C81.609 82.7983 82.1973 82.679 82.8469 82.679C83.5032 82.679 84.0865 82.7966 84.5969 83.032C85.1074 83.264 85.5117 83.5821 85.81 83.9865C86.1116 84.3909 86.2707 84.8499 86.2873 85.3636H85.0941ZM89.4679 88.4062V93H88.2946V82.8182H89.4679V86.5568H89.5673C89.7463 86.1624 90.0147 85.8492 90.3727 85.6172C90.734 85.3819 91.2145 85.2642 91.8145 85.2642C92.3348 85.2642 92.7905 85.3686 93.1816 85.5774C93.5727 85.7829 93.876 86.0994 94.0914 86.527C94.3102 86.9512 94.4196 87.4915 94.4196 88.1477V93H93.2463V88.2273C93.2463 87.6207 93.0888 87.1518 92.774 86.8203C92.4624 86.4856 92.0299 86.3182 91.4764 86.3182C91.0919 86.3182 90.7472 86.3994 90.4423 86.5618C90.1407 86.7242 89.902 86.9612 89.7264 87.2727C89.554 87.5843 89.4679 87.9621 89.4679 88.4062ZM98.8132 93.179C98.3293 93.179 97.8902 93.0878 97.4957 92.9055C97.1013 92.7199 96.7881 92.4531 96.5561 92.1051C96.3241 91.7538 96.2081 91.3295 96.2081 90.8324C96.2081 90.3949 96.2943 90.0402 96.4666 89.7685C96.639 89.4934 96.8693 89.2779 97.1577 89.1222C97.446 88.9664 97.7642 88.8504 98.1122 88.7741C98.4635 88.6946 98.8165 88.6316 99.1712 88.5852C99.6352 88.5256 100.011 88.4808 100.3 88.451C100.591 88.4179 100.804 88.3632 100.936 88.2869C101.072 88.2107 101.14 88.0781 101.14 87.8892V87.8494C101.14 87.3589 101.006 86.9777 100.737 86.706C100.472 86.4342 100.069 86.2983 99.5291 86.2983C98.969 86.2983 98.5298 86.4209 98.2116 86.6662C97.8935 86.9115 97.6697 87.1733 97.5405 87.4517L96.4268 87.054C96.6257 86.59 96.8909 86.2287 97.2223 85.9702C97.5571 85.7083 97.9216 85.526 98.3161 85.4233C98.7138 85.3172 99.1049 85.2642 99.4893 85.2642C99.7346 85.2642 100.016 85.294 100.335 85.3537C100.656 85.41 100.966 85.5277 101.264 85.7067C101.566 85.8857 101.816 86.1558 102.015 86.517C102.214 86.8783 102.313 87.3622 102.313 87.9688V93H101.14V91.9659H101.08C101.001 92.1316 100.868 92.3089 100.683 92.4979C100.497 92.6868 100.25 92.8475 99.9418 92.9801C99.6335 93.1127 99.2573 93.179 98.8132 93.179ZM98.9922 92.125C99.4562 92.125 99.8473 92.0339 100.165 91.8516C100.487 91.6693 100.729 91.4339 100.891 91.1456C101.057 90.8572 101.14 90.554 101.14 90.2358V89.1619C101.09 89.2216 100.981 89.2763 100.812 89.326C100.646 89.3724 100.454 89.4138 100.235 89.4503C100.02 89.4834 99.8092 89.5133 99.6037 89.5398C99.4015 89.563 99.2375 89.5829 99.1115 89.5994C98.8066 89.6392 98.5215 89.7038 98.2564 89.7933C97.9946 89.8795 97.7824 90.0104 97.62 90.1861C97.4609 90.3584 97.3814 90.5937 97.3814 90.892C97.3814 91.2997 97.5322 91.608 97.8338 91.8168C98.1387 92.0223 98.5249 92.125 98.9922 92.125ZM107.338 93.1591C106.702 93.1591 106.14 92.9983 105.653 92.6768C105.166 92.352 104.785 91.8946 104.509 91.3047C104.234 90.7114 104.097 90.0104 104.097 89.2017C104.097 88.3996 104.234 87.7036 104.509 87.1136C104.785 86.5237 105.167 86.0679 105.658 85.7464C106.148 85.425 106.715 85.2642 107.358 85.2642C107.855 85.2642 108.248 85.3471 108.536 85.5128C108.828 85.6752 109.05 85.8608 109.203 86.0696C109.358 86.2751 109.479 86.4441 109.566 86.5767H109.665V82.8182H110.838V93H109.705V91.8267H109.566C109.479 91.9659 109.357 92.1416 109.198 92.3537C109.039 92.5625 108.811 92.7498 108.517 92.9155C108.222 93.0779 107.829 93.1591 107.338 93.1591ZM107.497 92.1051C107.968 92.1051 108.366 91.9825 108.691 91.7372C109.015 91.4886 109.262 91.1456 109.431 90.7081C109.6 90.2673 109.685 89.7585 109.685 89.1818C109.685 88.6117 109.602 88.1129 109.436 87.6854C109.271 87.2545 109.025 86.9197 108.7 86.6811C108.376 86.4392 107.975 86.3182 107.497 86.3182C107 86.3182 106.586 86.4458 106.254 86.701C105.926 86.9529 105.679 87.2959 105.514 87.7301C105.351 88.161 105.27 88.6449 105.27 89.1818C105.27 89.7254 105.353 90.2192 105.519 90.6634C105.688 91.1042 105.936 91.4555 106.264 91.7173C106.596 91.9759 107.007 92.1051 107.497 92.1051ZM116.352 93.1591C115.616 93.1591 114.981 92.9967 114.448 92.6719C113.917 92.3438 113.508 91.8864 113.22 91.2997C112.935 90.7098 112.792 90.0237 112.792 89.2415C112.792 88.4593 112.935 87.7699 113.22 87.1733C113.508 86.5734 113.909 86.1061 114.423 85.7713C114.94 85.4332 115.543 85.2642 116.232 85.2642C116.63 85.2642 117.023 85.3305 117.411 85.4631C117.798 85.5956 118.151 85.8111 118.47 86.1094C118.788 86.4044 119.041 86.7955 119.23 87.2827C119.419 87.7699 119.514 88.3698 119.514 89.0824V89.5795H113.627V88.5653H118.32C118.32 88.1345 118.234 87.75 118.062 87.4119C117.893 87.0739 117.651 86.8071 117.336 86.6115C117.025 86.416 116.657 86.3182 116.232 86.3182C115.765 86.3182 115.361 86.4342 115.019 86.6662C114.681 86.8949 114.421 87.1932 114.239 87.5611C114.057 87.929 113.965 88.3234 113.965 88.7443V89.4205C113.965 89.9972 114.065 90.486 114.264 90.8871C114.466 91.2848 114.746 91.5881 115.104 91.7969C115.462 92.0024 115.878 92.1051 116.352 92.1051C116.66 92.1051 116.938 92.062 117.187 91.9759C117.439 91.8864 117.656 91.7538 117.838 91.5781C118.021 91.3991 118.161 91.1771 118.261 90.9119L119.394 91.2301C119.275 91.6146 119.075 91.9527 118.793 92.2443C118.511 92.5327 118.163 92.758 117.749 92.9205C117.334 93.0795 116.869 93.1591 116.352 93.1591ZM126.708 87.0739L125.654 87.3722C125.587 87.1965 125.49 87.0258 125.36 86.8601C125.234 86.6911 125.062 86.5518 124.843 86.4425C124.624 86.3331 124.344 86.2784 124.003 86.2784C123.536 86.2784 123.146 86.3861 122.835 86.6016C122.526 86.8137 122.372 87.0838 122.372 87.4119C122.372 87.7036 122.478 87.9339 122.691 88.103C122.903 88.272 123.234 88.4129 123.685 88.5256L124.818 88.804C125.501 88.9697 126.01 89.2232 126.345 89.5646C126.679 89.9027 126.847 90.3385 126.847 90.8722C126.847 91.3097 126.721 91.7008 126.469 92.0455C126.22 92.3902 125.872 92.6619 125.425 92.8608C124.977 93.0597 124.457 93.1591 123.864 93.1591C123.085 93.1591 122.44 92.9901 121.93 92.652C121.419 92.3139 121.096 91.8201 120.96 91.1705L122.074 90.892C122.18 91.303 122.381 91.6113 122.676 91.8168C122.974 92.0223 123.363 92.125 123.844 92.125C124.391 92.125 124.825 92.009 125.146 91.777C125.471 91.5417 125.634 91.2599 125.634 90.9318C125.634 90.6667 125.541 90.4446 125.355 90.2656C125.17 90.0833 124.885 89.9474 124.5 89.858L123.227 89.5597C122.528 89.3939 122.014 89.1371 121.686 88.7891C121.361 88.4377 121.199 87.9986 121.199 87.4716C121.199 87.0407 121.32 86.6596 121.562 86.3281C121.807 85.9967 122.14 85.7365 122.561 85.5476C122.985 85.3587 123.466 85.2642 124.003 85.2642C124.759 85.2642 125.352 85.4299 125.783 85.7614C126.217 86.0928 126.525 86.5303 126.708 87.0739Z" fill="white"/>
</svg>
