<svg width="175" height="175" viewBox="0 0 175 175" fill="none" xmlns="http://www.w3.org/2000/svg">
<circle cx="87.5" cy="87.5" r="87.5" fill="#FF5A5A"/>
<path d="M12.4659 82.8182V93H11.233V82.8182H12.4659ZM15.9522 88.4062V93H14.7789V85.3636H15.9125V86.5568H16.0119C16.1909 86.169 16.4627 85.8575 16.8272 85.6222C17.1918 85.3835 17.6625 85.2642 18.2392 85.2642C18.7562 85.2642 19.2086 85.3703 19.5964 85.5824C19.9842 85.7912 20.2858 86.1094 20.5012 86.5369C20.7167 86.9612 20.8244 87.4981 20.8244 88.1477V93H19.6511V88.2273C19.6511 87.6274 19.4953 87.16 19.1838 86.8253C18.8722 86.4872 18.4447 86.3182 17.9011 86.3182C17.5266 86.3182 17.1918 86.3994 16.8968 86.5618C16.6052 86.7242 16.3748 86.9612 16.2058 87.2727C16.0368 87.5843 15.9522 87.9621 15.9522 88.4062ZM27.065 82.8182H28.5366L31.9968 91.2699H32.1161L35.5763 82.8182H37.0479V93H35.8945V85.2642H35.7951L32.6133 93H31.4996L28.3178 85.2642H28.2184V93H27.065V82.8182ZM42.5627 93.1591C41.8269 93.1591 41.1922 92.9967 40.6586 92.6719C40.1283 92.3438 39.7189 91.8864 39.4306 91.2997C39.1455 90.7098 39.003 90.0237 39.003 89.2415C39.003 88.4593 39.1455 87.7699 39.4306 87.1733C39.7189 86.5734 40.12 86.1061 40.6337 85.7713C41.1507 85.4332 41.754 85.2642 42.4434 85.2642C42.8411 85.2642 43.2338 85.3305 43.6216 85.4631C44.0094 85.5956 44.3624 85.8111 44.6806 86.1094C44.9988 86.4044 45.2523 86.7955 45.4412 87.2827C45.6301 87.7699 45.7246 88.3698 45.7246 89.0824V89.5795H39.8382V88.5653H44.5314C44.5314 88.1345 44.4453 87.75 44.2729 87.4119C44.1039 87.0739 43.8619 86.8071 43.5471 86.6115C43.2355 86.416 42.8676 86.3182 42.4434 86.3182C41.976 86.3182 41.5717 86.4342 41.2303 86.6662C40.8922 86.8949 40.632 87.1932 40.4498 87.5611C40.2675 87.929 40.1763 88.3234 40.1763 88.7443V89.4205C40.1763 89.9972 40.2757 90.486 40.4746 90.8871C40.6768 91.2848 40.9569 91.5881 41.3148 91.7969C41.6728 92.0024 42.0887 92.1051 42.5627 92.1051C42.8709 92.1051 43.1493 92.062 43.3979 91.9759C43.6498 91.8864 43.8669 91.7538 44.0492 91.5781C44.2315 91.3991 44.3723 91.1771 44.4718 90.9119L45.6053 91.2301C45.486 91.6146 45.2855 91.9527 45.0037 92.2443C44.722 92.5327 44.374 92.758 43.9597 92.9205C43.5454 93.0795 43.0797 93.1591 42.5627 93.1591ZM47.5094 93V85.3636H48.6429V86.5568H48.7424C48.9015 86.1491 49.1583 85.8326 49.513 85.6072C49.8676 85.3786 50.2935 85.2642 50.7907 85.2642C51.2944 85.2642 51.7137 85.3786 52.0485 85.6072C52.3865 85.8326 52.65 86.1491 52.839 86.5568H52.9185C53.1141 86.1624 53.4074 85.8492 53.7985 85.6172C54.1896 85.3819 54.6586 85.2642 55.2054 85.2642C55.8882 85.2642 56.4467 85.478 56.8809 85.9055C57.315 86.3298 57.5321 86.991 57.5321 87.8892V93H56.3588V87.8892C56.3588 87.3258 56.2047 86.9231 55.8965 86.6811C55.5882 86.4392 55.2253 86.3182 54.8077 86.3182C54.2708 86.3182 53.8548 86.4806 53.5598 86.8054C53.2649 87.1269 53.1174 87.5346 53.1174 88.0284V93H51.9242V87.7699C51.9242 87.3357 51.7833 86.986 51.5016 86.7209C51.2199 86.4524 50.8569 86.3182 50.4128 86.3182C50.1079 86.3182 49.8229 86.3994 49.5577 86.5618C49.2959 86.7242 49.0837 86.9496 48.9213 87.2379C48.7623 87.523 48.6827 87.8527 48.6827 88.2273V93H47.5094ZM62.7797 93.1591C62.0903 93.1591 61.4854 92.995 60.965 92.6669C60.448 92.3388 60.0436 91.8797 59.752 91.2898C59.4636 90.6998 59.3194 90.0104 59.3194 89.2216C59.3194 88.4261 59.4636 87.7318 59.752 87.1385C60.0436 86.5452 60.448 86.0845 60.965 85.7564C61.4854 85.4283 62.0903 85.2642 62.7797 85.2642C63.469 85.2642 64.0723 85.4283 64.5893 85.7564C65.1097 86.0845 65.514 86.5452 65.8024 87.1385C66.094 87.7318 66.2399 88.4261 66.2399 89.2216C66.2399 90.0104 66.094 90.6998 65.8024 91.2898C65.514 91.8797 65.1097 92.3388 64.5893 92.6669C64.0723 92.995 63.469 93.1591 62.7797 93.1591ZM62.7797 92.1051C63.3033 92.1051 63.7342 91.9709 64.0723 91.7024C64.4103 91.4339 64.6606 91.081 64.823 90.6435C64.9854 90.206 65.0666 89.732 65.0666 89.2216C65.0666 88.7112 64.9854 88.2356 64.823 87.7947C64.6606 87.3539 64.4103 86.9976 64.0723 86.7259C63.7342 86.4541 63.3033 86.3182 62.7797 86.3182C62.256 86.3182 61.8251 86.4541 61.487 86.7259C61.149 86.9976 60.8987 87.3539 60.7363 87.7947C60.5739 88.2356 60.4927 88.7112 60.4927 89.2216C60.4927 89.732 60.5739 90.206 60.7363 90.6435C60.8987 91.081 61.149 91.4339 61.487 91.7024C61.8251 91.9709 62.256 92.1051 62.7797 92.1051ZM68.0309 93V85.3636H69.1644V86.517H69.244C69.3832 86.1392 69.6351 85.8326 69.9996 85.5973C70.3642 85.362 70.7752 85.2443 71.2326 85.2443C71.3188 85.2443 71.4265 85.246 71.5558 85.2493C71.685 85.2526 71.7828 85.2576 71.8491 85.2642V86.4574C71.8093 86.4474 71.7182 86.4325 71.5756 86.4126C71.4364 86.3894 71.2889 86.3778 71.1332 86.3778C70.762 86.3778 70.4305 86.4557 70.1388 86.6115C69.8505 86.764 69.6218 86.9761 69.4528 87.2479C69.2871 87.5163 69.2042 87.8229 69.2042 88.1676V93H68.0309ZM74.228 95.8636C74.0291 95.8636 73.8518 95.8471 73.696 95.8139C73.5402 95.7841 73.4325 95.7543 73.3729 95.7244L73.6712 94.6903C73.9562 94.7633 74.2081 94.7898 74.4268 94.7699C74.6456 94.75 74.8395 94.6522 75.0085 94.4766C75.1809 94.3042 75.3383 94.0241 75.4808 93.6364L75.6996 93.0398L72.8757 85.3636H74.1484L76.2564 91.4489H76.3359L78.4439 85.3636H79.7166L76.4751 94.1136C76.3293 94.508 76.1487 94.8345 75.9332 95.093C75.7178 95.3549 75.4676 95.5488 75.1825 95.6747C74.9008 95.8007 74.5826 95.8636 74.228 95.8636ZM88.305 93.1591C87.6156 93.1591 87.0108 92.995 86.4904 92.6669C85.9734 92.3388 85.569 91.8797 85.2773 91.2898C84.989 90.6998 84.8448 90.0104 84.8448 89.2216C84.8448 88.4261 84.989 87.7318 85.2773 87.1385C85.569 86.5452 85.9734 86.0845 86.4904 85.7564C87.0108 85.4283 87.6156 85.2642 88.305 85.2642C88.9944 85.2642 89.5977 85.4283 90.1147 85.7564C90.6351 86.0845 91.0394 86.5452 91.3278 87.1385C91.6194 87.7318 91.7653 88.4261 91.7653 89.2216C91.7653 90.0104 91.6194 90.6998 91.3278 91.2898C91.0394 91.8797 90.6351 92.3388 90.1147 92.6669C89.5977 92.995 88.9944 93.1591 88.305 93.1591ZM88.305 92.1051C88.8287 92.1051 89.2596 91.9709 89.5977 91.7024C89.9357 91.4339 90.186 91.081 90.3484 90.6435C90.5108 90.206 90.592 89.732 90.592 89.2216C90.592 88.7112 90.5108 88.2356 90.3484 87.7947C90.186 87.3539 89.9357 86.9976 89.5977 86.7259C89.2596 86.4541 88.8287 86.3182 88.305 86.3182C87.7814 86.3182 87.3505 86.4541 87.0124 86.7259C86.6744 86.9976 86.4241 87.3539 86.2617 87.7947C86.0993 88.2356 86.0181 88.7112 86.0181 89.2216C86.0181 89.732 86.0993 90.206 86.2617 90.6435C86.4241 91.081 86.6744 91.4339 87.0124 91.7024C87.3505 91.9709 87.7814 92.1051 88.305 92.1051ZM96.9569 85.3636V86.358H92.8404V85.3636H96.9569ZM94.0733 93V84.3097C94.0733 83.8722 94.1761 83.5076 94.3816 83.2159C94.5871 82.9242 94.8539 82.7055 95.182 82.5597C95.5101 82.4138 95.8565 82.3409 96.2211 82.3409C96.5094 82.3409 96.7447 82.3641 96.927 82.4105C97.1093 82.4569 97.2452 82.5 97.3347 82.5398L96.9966 83.554C96.937 83.5341 96.8541 83.5092 96.748 83.4794C96.6453 83.4496 96.5094 83.4347 96.3404 83.4347C95.9526 83.4347 95.6725 83.5324 95.5002 83.728C95.3311 83.9235 95.2466 84.2102 95.2466 84.5881V93H94.0733ZM102.698 93V82.8182H106.257C106.967 82.8182 107.552 82.9408 108.012 83.1861C108.473 83.428 108.816 83.7545 109.042 84.1655C109.267 84.5732 109.38 85.0256 109.38 85.5227C109.38 85.9602 109.302 86.3215 109.146 86.6065C108.993 86.8916 108.791 87.117 108.539 87.2827C108.291 87.4484 108.021 87.571 107.729 87.6506V87.75C108.041 87.7699 108.354 87.8793 108.669 88.0781C108.984 88.277 109.247 88.562 109.459 88.9332C109.671 89.3045 109.777 89.7585 109.777 90.2955C109.777 90.8059 109.661 91.2649 109.429 91.6726C109.197 92.0803 108.831 92.4034 108.331 92.642C107.83 92.8807 107.179 93 106.377 93H102.698ZM103.931 91.9062H106.377C107.182 91.9062 107.754 91.7505 108.092 91.4389C108.433 91.1241 108.604 90.7429 108.604 90.2955C108.604 89.9508 108.516 89.6326 108.341 89.3409C108.165 89.0459 107.915 88.8106 107.59 88.6349C107.265 88.456 106.881 88.3665 106.436 88.3665H103.931V91.9062ZM103.931 87.2926H106.218C106.589 87.2926 106.924 87.2197 107.222 87.0739C107.524 86.928 107.762 86.7225 107.938 86.4574C108.117 86.1922 108.206 85.8807 108.206 85.5227C108.206 85.0753 108.051 84.6958 107.739 84.3842C107.427 84.0694 106.934 83.9119 106.257 83.9119H103.931V87.2926ZM111.644 93V85.3636H112.817V93H111.644ZM112.241 84.0909C112.012 84.0909 111.815 84.013 111.649 83.8572C111.487 83.7015 111.406 83.5142 111.406 83.2955C111.406 83.0767 111.487 82.8894 111.649 82.7337C111.815 82.5779 112.012 82.5 112.241 82.5C112.469 82.5 112.665 82.5779 112.827 82.7337C112.993 82.8894 113.076 83.0767 113.076 83.2955C113.076 83.5142 112.993 83.7015 112.827 83.8572C112.665 84.013 112.469 84.0909 112.241 84.0909ZM116.14 82.8182V93H114.966V82.8182H116.14ZM119.462 82.8182V93H118.289V82.8182H119.462ZM125.708 93V82.8182H131.852V83.9119H126.941V87.3523H131.534V88.446H126.941V91.9062H131.932V93H125.708ZM140.16 85.3636L137.336 93H136.143L133.319 85.3636H134.592L136.7 91.4489H136.779L138.887 85.3636H140.16ZM143.723 93.179C143.239 93.179 142.8 93.0878 142.406 92.9055C142.011 92.7199 141.698 92.4531 141.466 92.1051C141.234 91.7538 141.118 91.3295 141.118 90.8324C141.118 90.3949 141.204 90.0402 141.377 89.7685C141.549 89.4934 141.779 89.2779 142.068 89.1222C142.356 88.9664 142.674 88.8504 143.022 88.7741C143.374 88.6946 143.727 88.6316 144.081 88.5852C144.545 88.5256 144.922 88.4808 145.21 88.451C145.502 88.4179 145.714 88.3632 145.846 88.2869C145.982 88.2107 146.05 88.0781 146.05 87.8892V87.8494C146.05 87.3589 145.916 86.9777 145.647 86.706C145.382 86.4342 144.98 86.2983 144.439 86.2983C143.879 86.2983 143.44 86.4209 143.122 86.6662C142.804 86.9115 142.58 87.1733 142.451 87.4517L141.337 87.054C141.536 86.59 141.801 86.2287 142.132 85.9702C142.467 85.7083 142.832 85.526 143.226 85.4233C143.624 85.3172 144.015 85.2642 144.4 85.2642C144.645 85.2642 144.926 85.294 145.245 85.3537C145.566 85.41 145.876 85.5277 146.174 85.7067C146.476 85.8857 146.726 86.1558 146.925 86.517C147.124 86.8783 147.223 87.3622 147.223 87.9688V93H146.05V91.9659H145.99C145.911 92.1316 145.778 92.3089 145.593 92.4979C145.407 92.6868 145.16 92.8475 144.852 92.9801C144.544 93.1127 144.167 93.179 143.723 93.179ZM143.902 92.125C144.366 92.125 144.757 92.0339 145.076 91.8516C145.397 91.6693 145.639 91.4339 145.801 91.1456C145.967 90.8572 146.05 90.554 146.05 90.2358V89.1619C146 89.2216 145.891 89.2763 145.722 89.326C145.556 89.3724 145.364 89.4138 145.145 89.4503C144.93 89.4834 144.719 89.5133 144.514 89.5398C144.312 89.563 144.148 89.5829 144.022 89.5994C143.717 89.6392 143.432 89.7038 143.167 89.7933C142.905 89.8795 142.693 90.0104 142.53 90.1861C142.371 90.3584 142.292 90.5937 142.292 90.892C142.292 91.2997 142.442 91.608 142.744 91.8168C143.049 92.0223 143.435 92.125 143.902 92.125ZM150.538 88.4062V93H149.365V85.3636H150.498V86.5568H150.598C150.777 86.169 151.049 85.8575 151.413 85.6222C151.778 85.3835 152.248 85.2642 152.825 85.2642C153.342 85.2642 153.795 85.3703 154.182 85.5824C154.57 85.7912 154.872 86.1094 155.087 86.5369C155.303 86.9612 155.41 87.4981 155.41 88.1477V93H154.237V88.2273C154.237 87.6274 154.081 87.16 153.77 86.8253C153.458 86.4872 153.031 86.3182 152.487 86.3182C152.113 86.3182 151.778 86.3994 151.483 86.5618C151.191 86.7242 150.961 86.9612 150.792 87.2727C150.623 87.5843 150.538 87.9621 150.538 88.4062ZM162.963 87.0739L161.909 87.3722C161.843 87.1965 161.745 87.0258 161.616 86.8601C161.49 86.6911 161.318 86.5518 161.099 86.4425C160.88 86.3331 160.6 86.2784 160.259 86.2784C159.792 86.2784 159.402 86.3861 159.091 86.6016C158.782 86.8137 158.628 87.0838 158.628 87.4119C158.628 87.7036 158.734 87.9339 158.946 88.103C159.158 88.272 159.49 88.4129 159.941 88.5256L161.074 88.804C161.757 88.9697 162.266 89.2232 162.6 89.5646C162.935 89.9027 163.103 90.3385 163.103 90.8722C163.103 91.3097 162.977 91.7008 162.725 92.0455C162.476 92.3902 162.128 92.6619 161.681 92.8608C161.233 93.0597 160.713 93.1591 160.12 93.1591C159.341 93.1591 158.696 92.9901 158.186 92.652C157.675 92.3139 157.352 91.8201 157.216 91.1705L158.33 90.892C158.436 91.303 158.636 91.6113 158.931 91.8168C159.23 92.0223 159.619 92.125 160.1 92.125C160.647 92.125 161.081 92.009 161.402 91.777C161.727 91.5417 161.89 91.2599 161.89 90.9318C161.89 90.6667 161.797 90.4446 161.611 90.2656C161.426 90.0833 161.141 89.9474 160.756 89.858L159.483 89.5597C158.784 89.3939 158.27 89.1371 157.942 88.7891C157.617 88.4377 157.455 87.9986 157.455 87.4716C157.455 87.0407 157.576 86.6596 157.818 86.3281C158.063 85.9967 158.396 85.7365 158.817 85.5476C159.241 85.3587 159.722 85.2642 160.259 85.2642C161.015 85.2642 161.608 85.4299 162.039 85.7614C162.473 86.0928 162.781 86.5303 162.963 87.0739Z" fill="white"/>
</svg>
